# xmcd CD database file
#
# Track frame offsets:
#	150
#	19647
#	36889
#	57357
#	75932
#	95648
#	115375
#	141466
#	159806
#	177844
#	198378
#	217870
#	240911
#
# Disc length: 3507 seconds
#
# Revision: 0
# Processed by: cddbd v1.5.2PL0 Copyright (c) Steve Scherf et al.
# Submitted via: CDex 1.51
#
DISCID=a00db10d
DTITLE=Mary Chapin Carpenter - The Calling
DYEAR=2007
DGENRE=Country
TTITLE0=The Calling
TTITLE1=We're All Right
TTITLE2=Twilight
TTITLE3=It Must Have Happened
TTITLE4=On And On It Goes
TTITLE5=Your Life Story
TTITLE6=Houston
TTITLE7=Leaving Song
TTITLE8=On With The Song
TTITLE9=Closer And Closer Apart
TTITLE10=Here I Am
TTITLE11=Why Shouldn't We
TTITLE12=Bright Morning Star
EXTD=YEAR: 2007
EXTT0=
EXTT1=
EXTT2=
EXTT3=
EXTT4=
EXTT5=
EXTT6=
EXTT7=
EXTT8=
EXTT9=
EXTT10=
EXTT11=
EXTT12=
PLAYORDER=
